<svg width="478" height="323" viewBox="0 0 478 323" fill="none" xmlns="http://www.w3.org/2000/svg">
<mask id="path-2-outside-1_210_166" maskUnits="userSpaceOnUse" x="70" y="152" width="358" height="124" fill="black">
<rect fill="white" x="70" y="152" width="358" height="124"/>
<path d="M131.968 260.664C124.885 260.664 118.485 259.469 112.768 257.08C107.051 254.605 102.144 251.235 98.048 246.968C94.0373 242.701 90.9227 237.752 88.704 232.12C86.4853 226.488 85.376 220.472 85.376 214.072C85.376 207.757 86.4853 201.784 88.704 196.152C90.9227 190.52 94.0373 185.571 98.048 181.304C102.144 177.037 107.051 173.709 112.768 171.32C118.485 168.931 124.885 167.736 131.968 167.736C139.051 167.736 145.451 168.931 151.168 171.32C156.885 173.709 161.749 177.037 165.76 181.304C169.856 185.571 173.013 190.52 175.232 196.152C177.451 201.784 178.56 207.8 178.56 214.2C178.56 220.515 177.451 226.488 175.232 232.12C173.013 237.752 169.856 242.701 165.76 246.968C161.749 251.235 156.885 254.605 151.168 257.08C145.451 259.469 139.051 260.664 131.968 260.664ZM131.968 249.784C136.832 249.784 141.355 248.888 145.536 247.096C149.717 245.304 153.344 242.787 156.416 239.544C159.573 236.301 162.005 232.547 163.712 228.28C165.419 223.928 166.272 219.192 166.272 214.072C166.272 209.037 165.419 204.344 163.712 199.992C162.005 195.64 159.616 191.885 156.544 188.728C153.472 185.485 149.803 183.011 145.536 181.304C141.355 179.512 136.832 178.616 131.968 178.616C127.019 178.616 122.453 179.512 118.272 181.304C114.091 183.011 110.464 185.485 107.392 188.728C104.32 191.885 101.931 195.64 100.224 199.992C98.5173 204.344 97.664 209.08 97.664 214.2C97.664 219.235 98.5173 223.928 100.224 228.28C101.931 232.547 104.32 236.301 107.392 239.544C110.464 242.787 114.091 245.304 118.272 247.096C122.453 248.888 127.019 249.784 131.968 249.784ZM193.219 259V248.12H232.003C234.99 248.12 237.55 247.437 239.683 246.072C241.816 244.621 243.48 242.787 244.675 240.568C245.87 238.349 246.467 236.003 246.467 233.528C246.467 230.968 245.87 228.621 244.675 226.488C243.566 224.269 241.944 222.52 239.811 221.24C237.763 219.875 235.246 219.192 232.259 219.192H215.363C210.328 219.192 205.891 218.168 202.051 216.12C198.211 213.987 195.182 211.085 192.963 207.416C190.83 203.661 189.763 199.437 189.763 194.744C189.763 189.965 190.787 185.656 192.835 181.816C194.968 177.976 197.912 174.947 201.667 172.728C205.507 170.509 209.902 169.4 214.851 169.4H252.867V180.28H216.003C213.187 180.28 210.712 180.963 208.579 182.328C206.446 183.608 204.824 185.315 203.715 187.448C202.606 189.496 202.051 191.715 202.051 194.104C202.051 196.408 202.563 198.627 203.587 200.76C204.696 202.808 206.275 204.472 208.323 205.752C210.456 207.032 212.888 207.672 215.619 207.672H232.899C238.275 207.672 242.883 208.739 246.723 210.872C250.563 213.005 253.507 215.907 255.555 219.576C257.603 223.245 258.627 227.427 258.627 232.12C258.627 237.325 257.56 241.976 255.427 246.072C253.379 250.083 250.435 253.24 246.595 255.544C242.755 257.848 238.36 259 233.411 259H193.219ZM309.053 260.536C302.141 260.536 295.997 259.085 290.621 256.184C285.245 253.283 281.021 249.101 277.949 243.64C274.962 238.179 273.469 231.736 273.469 224.312V169.4H285.757V225.592C285.757 229.944 286.696 233.955 288.573 237.624C290.45 241.293 293.138 244.237 296.637 246.456C300.136 248.589 304.274 249.656 309.053 249.656C313.832 249.656 317.97 248.589 321.469 246.456C324.968 244.237 327.613 241.293 329.405 237.624C331.282 233.955 332.221 229.944 332.221 225.592V169.4H344.509V224.312C344.509 231.736 342.973 238.179 339.901 243.64C336.914 249.101 332.733 253.283 327.357 256.184C322.066 259.085 315.965 260.536 309.053 260.536ZM364.627 230.712V169.4H376.403V230.712H364.627ZM370.515 260.28C368.211 260.28 366.206 259.469 364.499 257.848C362.878 256.141 362.067 254.136 362.067 251.832C362.067 249.528 362.878 247.565 364.499 245.944C366.206 244.237 368.211 243.384 370.515 243.384C372.819 243.384 374.782 244.237 376.403 245.944C378.11 247.565 378.963 249.528 378.963 251.832C378.963 253.368 378.579 254.776 377.811 256.056C377.128 257.336 376.147 258.36 374.867 259.128C373.587 259.896 372.136 260.28 370.515 260.28ZM397.877 230.712V169.4H409.653V230.712H397.877ZM403.765 260.28C401.461 260.28 399.456 259.469 397.749 257.848C396.128 256.141 395.317 254.136 395.317 251.832C395.317 249.528 396.128 247.565 397.749 245.944C399.456 244.237 401.461 243.384 403.765 243.384C406.069 243.384 408.032 244.237 409.653 245.944C411.36 247.565 412.213 249.528 412.213 251.832C412.213 253.368 411.829 254.776 411.061 256.056C410.378 257.336 409.397 258.36 408.117 259.128C406.837 259.896 405.386 260.28 403.765 260.28Z"/>
</mask>
<path d="M131.968 260.664C124.885 260.664 118.485 259.469 112.768 257.08C107.051 254.605 102.144 251.235 98.048 246.968C94.0373 242.701 90.9227 237.752 88.704 232.12C86.4853 226.488 85.376 220.472 85.376 214.072C85.376 207.757 86.4853 201.784 88.704 196.152C90.9227 190.52 94.0373 185.571 98.048 181.304C102.144 177.037 107.051 173.709 112.768 171.32C118.485 168.931 124.885 167.736 131.968 167.736C139.051 167.736 145.451 168.931 151.168 171.32C156.885 173.709 161.749 177.037 165.76 181.304C169.856 185.571 173.013 190.52 175.232 196.152C177.451 201.784 178.56 207.8 178.56 214.2C178.56 220.515 177.451 226.488 175.232 232.12C173.013 237.752 169.856 242.701 165.76 246.968C161.749 251.235 156.885 254.605 151.168 257.08C145.451 259.469 139.051 260.664 131.968 260.664ZM131.968 249.784C136.832 249.784 141.355 248.888 145.536 247.096C149.717 245.304 153.344 242.787 156.416 239.544C159.573 236.301 162.005 232.547 163.712 228.28C165.419 223.928 166.272 219.192 166.272 214.072C166.272 209.037 165.419 204.344 163.712 199.992C162.005 195.64 159.616 191.885 156.544 188.728C153.472 185.485 149.803 183.011 145.536 181.304C141.355 179.512 136.832 178.616 131.968 178.616C127.019 178.616 122.453 179.512 118.272 181.304C114.091 183.011 110.464 185.485 107.392 188.728C104.32 191.885 101.931 195.64 100.224 199.992C98.5173 204.344 97.664 209.08 97.664 214.2C97.664 219.235 98.5173 223.928 100.224 228.28C101.931 232.547 104.32 236.301 107.392 239.544C110.464 242.787 114.091 245.304 118.272 247.096C122.453 248.888 127.019 249.784 131.968 249.784ZM193.219 259V248.12H232.003C234.99 248.12 237.55 247.437 239.683 246.072C241.816 244.621 243.48 242.787 244.675 240.568C245.87 238.349 246.467 236.003 246.467 233.528C246.467 230.968 245.87 228.621 244.675 226.488C243.566 224.269 241.944 222.52 239.811 221.24C237.763 219.875 235.246 219.192 232.259 219.192H215.363C210.328 219.192 205.891 218.168 202.051 216.12C198.211 213.987 195.182 211.085 192.963 207.416C190.83 203.661 189.763 199.437 189.763 194.744C189.763 189.965 190.787 185.656 192.835 181.816C194.968 177.976 197.912 174.947 201.667 172.728C205.507 170.509 209.902 169.4 214.851 169.4H252.867V180.28H216.003C213.187 180.28 210.712 180.963 208.579 182.328C206.446 183.608 204.824 185.315 203.715 187.448C202.606 189.496 202.051 191.715 202.051 194.104C202.051 196.408 202.563 198.627 203.587 200.76C204.696 202.808 206.275 204.472 208.323 205.752C210.456 207.032 212.888 207.672 215.619 207.672H232.899C238.275 207.672 242.883 208.739 246.723 210.872C250.563 213.005 253.507 215.907 255.555 219.576C257.603 223.245 258.627 227.427 258.627 232.12C258.627 237.325 257.56 241.976 255.427 246.072C253.379 250.083 250.435 253.24 246.595 255.544C242.755 257.848 238.36 259 233.411 259H193.219ZM309.053 260.536C302.141 260.536 295.997 259.085 290.621 256.184C285.245 253.283 281.021 249.101 277.949 243.64C274.962 238.179 273.469 231.736 273.469 224.312V169.4H285.757V225.592C285.757 229.944 286.696 233.955 288.573 237.624C290.45 241.293 293.138 244.237 296.637 246.456C300.136 248.589 304.274 249.656 309.053 249.656C313.832 249.656 317.97 248.589 321.469 246.456C324.968 244.237 327.613 241.293 329.405 237.624C331.282 233.955 332.221 229.944 332.221 225.592V169.4H344.509V224.312C344.509 231.736 342.973 238.179 339.901 243.64C336.914 249.101 332.733 253.283 327.357 256.184C322.066 259.085 315.965 260.536 309.053 260.536ZM364.627 230.712V169.4H376.403V230.712H364.627ZM370.515 260.28C368.211 260.28 366.206 259.469 364.499 257.848C362.878 256.141 362.067 254.136 362.067 251.832C362.067 249.528 362.878 247.565 364.499 245.944C366.206 244.237 368.211 243.384 370.515 243.384C372.819 243.384 374.782 244.237 376.403 245.944C378.11 247.565 378.963 249.528 378.963 251.832C378.963 253.368 378.579 254.776 377.811 256.056C377.128 257.336 376.147 258.36 374.867 259.128C373.587 259.896 372.136 260.28 370.515 260.28ZM397.877 230.712V169.4H409.653V230.712H397.877ZM403.765 260.28C401.461 260.28 399.456 259.469 397.749 257.848C396.128 256.141 395.317 254.136 395.317 251.832C395.317 249.528 396.128 247.565 397.749 245.944C399.456 244.237 401.461 243.384 403.765 243.384C406.069 243.384 408.032 244.237 409.653 245.944C411.36 247.565 412.213 249.528 412.213 251.832C412.213 253.368 411.829 254.776 411.061 256.056C410.378 257.336 409.397 258.36 408.117 259.128C406.837 259.896 405.386 260.28 403.765 260.28Z" fill="#934AB3"/>
<path d="M112.768 257.08L106.81 270.846L106.897 270.883L106.984 270.92L112.768 257.08ZM98.048 246.968L87.1186 257.242L87.1726 257.299L87.2272 257.356L98.048 246.968ZM88.704 232.12L74.7479 237.618L74.7479 237.618L88.704 232.12ZM88.704 196.152L74.7479 190.654L88.704 196.152ZM98.048 181.304L87.2272 170.916L87.1726 170.973L87.1186 171.03L98.048 181.304ZM112.768 171.32L106.984 157.48L106.984 157.48L112.768 171.32ZM151.168 171.32L156.952 157.48L156.952 157.48L151.168 171.32ZM165.76 181.304L154.831 191.578L154.885 191.635L154.939 191.692L165.76 181.304ZM175.232 196.152L161.276 201.65L161.276 201.65L175.232 196.152ZM175.232 232.12L161.276 226.622L161.276 226.622L175.232 232.12ZM165.76 246.968L154.939 236.58L154.885 236.637L154.831 236.694L165.76 246.968ZM151.168 257.08L156.952 270.92L157.039 270.883L157.126 270.846L151.168 257.08ZM145.536 247.096L139.627 233.309L139.627 233.309L145.536 247.096ZM156.416 239.544L145.669 229.08L145.597 229.153L145.527 229.228L156.416 239.544ZM163.712 228.28L177.639 233.851L177.658 233.804L177.677 233.756L163.712 228.28ZM163.712 199.992L177.677 194.516L177.677 194.516L163.712 199.992ZM156.544 188.728L145.655 199.044L145.723 199.117L145.793 199.188L156.544 188.728ZM145.536 181.304L139.627 195.091L139.795 195.163L139.965 195.231L145.536 181.304ZM118.272 181.304L123.94 195.192L124.061 195.142L124.181 195.091L118.272 181.304ZM107.392 188.728L118.143 199.188L118.213 199.117L118.281 199.044L107.392 188.728ZM100.224 228.28L86.2594 233.756L86.278 233.804L86.2969 233.851L100.224 228.28ZM107.392 239.544L118.281 229.228L118.281 229.228L107.392 239.544ZM118.272 247.096L124.181 233.309L124.181 233.309L118.272 247.096ZM131.968 260.664V245.664C126.589 245.664 122.194 244.762 118.552 243.24L112.768 257.08L106.984 270.92C114.777 274.177 123.182 275.664 131.968 275.664V260.664ZM112.768 257.08L118.726 243.314C114.739 241.588 111.512 239.333 108.869 236.58L98.048 246.968L87.2272 257.356C92.7764 263.136 99.3623 267.622 106.81 270.846L112.768 257.08ZM98.048 246.968L108.977 236.694C106.313 233.86 104.206 230.546 102.66 226.622L88.704 232.12L74.7479 237.618C77.6396 244.958 81.7614 251.542 87.1186 257.242L98.048 246.968ZM88.704 232.12L102.66 226.622C101.17 222.84 100.376 218.699 100.376 214.072H85.376H70.376C70.376 222.245 71.8006 230.136 74.7479 237.618L88.704 232.12ZM85.376 214.072H100.376C100.376 209.557 101.161 205.456 102.66 201.65L88.704 196.152L74.7479 190.654C71.8098 198.112 70.376 205.958 70.376 214.072H85.376ZM88.704 196.152L102.66 201.65C104.206 197.726 106.313 194.412 108.977 191.578L98.048 181.304L87.1186 171.03C81.7614 176.73 77.6396 183.314 74.7479 190.654L88.704 196.152ZM98.048 181.304L108.869 191.692C111.473 188.98 114.64 186.795 118.552 185.16L112.768 171.32L106.984 157.48C99.4612 160.624 92.8154 165.095 87.2272 170.916L98.048 181.304ZM112.768 171.32L118.552 185.16C122.194 183.638 126.589 182.736 131.968 182.736V167.736V152.736C123.182 152.736 114.777 154.223 106.984 157.48L112.768 171.32ZM131.968 167.736V182.736C137.347 182.736 141.742 183.638 145.384 185.16L151.168 171.32L156.952 157.48C149.159 154.223 140.754 152.736 131.968 152.736V167.736ZM151.168 171.32L145.384 185.16C149.27 186.784 152.348 188.937 154.831 191.578L165.76 181.304L176.689 171.03C171.15 165.138 164.501 160.635 156.952 157.48L151.168 171.32ZM165.76 181.304L154.939 191.692C157.649 194.515 159.756 197.793 161.276 201.65L175.232 196.152L189.188 190.654C186.27 183.247 182.063 176.626 176.581 170.916L165.76 181.304ZM175.232 196.152L161.276 201.65C162.766 205.432 163.56 209.573 163.56 214.2H178.56H193.56C193.56 206.027 192.135 198.136 189.188 190.654L175.232 196.152ZM178.56 214.2H163.56C163.56 218.715 162.775 222.816 161.276 226.622L175.232 232.12L189.188 237.618C192.126 230.16 193.56 222.314 193.56 214.2H178.56ZM175.232 232.12L161.276 226.622C159.757 230.479 157.649 233.757 154.939 236.58L165.76 246.968L176.581 257.356C182.063 251.646 186.27 245.025 189.188 237.618L175.232 232.12ZM165.76 246.968L154.831 236.694C152.31 239.376 149.171 241.6 145.21 243.314L151.168 257.08L157.126 270.846C164.6 267.611 171.189 263.093 176.689 257.242L165.76 246.968ZM151.168 257.08L145.384 243.24C141.742 244.762 137.347 245.664 131.968 245.664V260.664V275.664C140.754 275.664 149.159 274.177 156.952 270.92L151.168 257.08ZM131.968 249.784V264.784C138.721 264.784 145.27 263.53 151.445 260.883L145.536 247.096L139.627 233.309C137.44 234.246 134.943 234.784 131.968 234.784V249.784ZM145.536 247.096L151.445 260.883C157.47 258.301 162.801 254.615 167.305 249.86L156.416 239.544L145.527 229.228C143.887 230.958 141.965 232.307 139.627 233.309L145.536 247.096ZM156.416 239.544L167.163 250.008C171.712 245.336 175.215 239.912 177.639 233.851L163.712 228.28L149.785 222.709C148.796 225.181 147.435 227.266 145.669 229.08L156.416 239.544ZM163.712 228.28L177.677 233.756C180.13 227.5 181.272 220.887 181.272 214.072H166.272H151.272C151.272 217.497 150.707 220.356 149.747 222.804L163.712 228.28ZM166.272 214.072H181.272C181.272 207.309 180.119 200.743 177.677 194.516L163.712 199.992L149.747 205.468C150.719 207.945 151.272 210.766 151.272 214.072H166.272ZM163.712 199.992L177.677 194.516C175.286 188.42 171.843 182.942 167.295 178.268L156.544 188.728L145.793 199.188C147.389 200.829 148.724 202.86 149.747 205.468L163.712 199.992ZM156.544 188.728L167.433 178.412C162.827 173.549 157.327 169.865 151.107 167.377L145.536 181.304L139.965 195.231C142.278 196.156 144.117 197.421 145.655 199.044L156.544 188.728ZM145.536 181.304L151.445 167.517C145.27 164.87 138.721 163.616 131.968 163.616V178.616V193.616C134.943 193.616 137.44 194.154 139.627 195.091L145.536 181.304ZM131.968 178.616V163.616C125.168 163.616 118.571 164.857 112.363 167.517L118.272 181.304L124.181 195.091C126.336 194.167 128.87 193.616 131.968 193.616V178.616ZM118.272 181.304L112.604 167.416C106.47 169.92 101.058 173.603 96.5027 178.412L107.392 188.728L118.281 199.044C119.87 197.367 121.711 196.102 123.94 195.192L118.272 181.304ZM107.392 188.728L96.6411 178.268C92.093 182.942 88.6497 188.42 86.2594 194.516L100.224 199.992L114.189 205.468C115.212 202.86 116.547 200.829 118.143 199.188L107.392 188.728ZM100.224 199.992L86.2594 194.516C83.8061 200.772 82.664 207.385 82.664 214.2H97.664H112.664C112.664 210.775 113.229 207.916 114.189 205.468L100.224 199.992ZM97.664 214.2H82.664C82.664 220.963 83.8174 227.529 86.2594 233.756L100.224 228.28L114.189 222.804C113.217 220.327 112.664 217.506 112.664 214.2H97.664ZM100.224 228.28L86.2969 233.851C88.6866 239.825 92.0897 245.202 96.5027 249.86L107.392 239.544L118.281 229.228C116.55 227.401 115.175 225.268 114.151 222.709L100.224 228.28ZM107.392 239.544L96.5027 249.86C101.007 254.615 106.338 258.301 112.363 260.883L118.272 247.096L124.181 233.309C121.843 232.307 119.921 230.958 118.281 229.228L107.392 239.544ZM118.272 247.096L112.363 260.883C118.571 263.543 125.168 264.784 131.968 264.784V249.784V234.784C128.87 234.784 126.336 234.233 124.181 233.309L118.272 247.096ZM193.219 259H178.219V274H193.219V259ZM193.219 248.12V233.12H178.219V248.12H193.219ZM239.683 246.072L247.769 258.706L247.945 258.593L248.118 258.476L239.683 246.072ZM244.675 240.568L231.468 233.457L231.468 233.457L244.675 240.568ZM244.675 226.488L231.259 233.196L231.416 233.51L231.587 233.817L244.675 226.488ZM239.811 221.24L231.49 233.721L231.787 233.919L232.094 234.102L239.811 221.24ZM202.051 216.12L194.766 229.232L194.879 229.295L194.992 229.355L202.051 216.12ZM192.963 207.416L179.921 214.826L180.022 215.003L180.127 215.177L192.963 207.416ZM192.835 181.816L179.723 174.531L179.66 174.644L179.6 174.757L192.835 181.816ZM201.667 172.728L194.163 159.74L194.099 159.777L194.036 159.814L201.667 172.728ZM252.867 169.4H267.867V154.4H252.867V169.4ZM252.867 180.28V195.28H267.867V180.28H252.867ZM208.579 182.328L216.296 195.19L216.482 195.079L216.665 194.962L208.579 182.328ZM203.715 187.448L216.904 194.592L216.965 194.481L217.023 194.368L203.715 187.448ZM203.587 200.76L190.064 207.251L190.223 207.582L190.398 207.904L203.587 200.76ZM208.323 205.752L200.373 218.472L200.489 218.544L200.606 218.614L208.323 205.752ZM246.723 210.872L254.008 197.76L254.008 197.76L246.723 210.872ZM255.555 219.576L242.457 226.886L242.457 226.886L255.555 219.576ZM255.427 246.072L242.123 239.143L242.095 239.197L242.068 239.25L255.427 246.072ZM246.595 255.544L238.878 242.682L238.878 242.682L246.595 255.544ZM193.219 259H208.219V248.12H193.219H178.219V259H193.219ZM193.219 248.12V263.12H232.003V248.12V233.12H193.219V248.12ZM232.003 248.12V263.12C237.334 263.12 242.817 261.875 247.769 258.706L239.683 246.072L231.597 233.438C231.736 233.349 231.875 233.276 232.004 233.22C232.132 233.164 232.234 233.132 232.298 233.114C232.427 233.08 232.354 233.12 232.003 233.12V248.12ZM239.683 246.072L248.118 258.476C252.195 255.704 255.517 252.072 257.882 247.679L244.675 240.568L231.468 233.457C231.45 233.49 231.438 233.508 231.433 233.515C231.428 233.522 231.424 233.526 231.42 233.531C231.418 233.534 231.375 233.582 231.248 233.668L239.683 246.072ZM244.675 240.568L257.882 247.679C260.231 243.317 261.467 238.532 261.467 233.528H246.467H231.467C231.467 233.542 231.466 233.536 231.469 233.516C231.471 233.495 231.476 233.47 231.483 233.444C231.489 233.418 231.495 233.402 231.496 233.399C231.497 233.397 231.49 233.415 231.468 233.457L244.675 240.568ZM246.467 233.528H261.467C261.467 228.527 260.271 223.638 257.763 219.159L244.675 226.488L231.587 233.817C231.573 233.791 231.553 233.751 231.532 233.699C231.511 233.647 231.495 233.595 231.483 233.548C231.456 233.445 231.467 233.425 231.467 233.528H246.467ZM244.675 226.488L258.091 219.78C255.702 215.002 252.1 211.121 247.528 208.378L239.811 221.24L232.094 234.102C231.998 234.045 231.819 233.917 231.626 233.708C231.432 233.5 231.314 233.307 231.259 233.196L244.675 226.488ZM239.811 221.24L248.132 208.759C243.137 205.429 237.568 204.192 232.259 204.192V219.192V234.192C232.614 234.192 232.652 234.233 232.461 234.181C232.25 234.124 231.892 233.989 231.49 233.721L239.811 221.24ZM232.259 219.192V204.192H215.363V219.192V234.192H232.259V219.192ZM215.363 219.192V204.192C212.402 204.192 210.459 203.604 209.11 202.885L202.051 216.12L194.992 229.355C201.323 232.732 208.255 234.192 215.363 234.192V219.192ZM202.051 216.12L209.336 203.008C207.722 202.111 206.631 201.031 205.799 199.655L192.963 207.416L180.127 215.177C183.732 221.14 188.7 225.862 194.766 229.232L202.051 216.12ZM192.963 207.416L206.005 200.006C205.265 198.704 204.763 197.072 204.763 194.744H189.763H174.763C174.763 201.803 176.394 208.619 179.921 214.826L192.963 207.416ZM189.763 194.744H204.763C204.763 192.181 205.292 190.335 206.07 188.875L192.835 181.816L179.6 174.757C176.282 180.977 174.763 187.75 174.763 194.744H189.763ZM192.835 181.816L205.947 189.101C206.796 187.573 207.856 186.494 209.298 185.642L201.667 172.728L194.036 159.814C187.969 163.399 183.141 168.379 179.723 174.531L192.835 181.816ZM201.667 172.728L209.171 185.716C210.474 184.963 212.224 184.4 214.851 184.4V169.4V154.4C207.58 154.4 200.54 156.055 194.163 159.74L201.667 172.728ZM214.851 169.4V184.4H252.867V169.4V154.4H214.851V169.4ZM252.867 169.4H237.867V180.28H252.867H267.867V169.4H252.867ZM252.867 180.28V165.28H216.003V180.28V195.28H252.867V180.28ZM216.003 180.28V165.28C210.652 165.28 205.305 166.614 200.493 169.694L208.579 182.328L216.665 194.962C216.448 195.101 216.216 195.199 216.024 195.252C215.843 195.302 215.814 195.28 216.003 195.28V180.28ZM208.579 182.328L200.862 169.466C196.438 172.12 192.841 175.847 190.407 180.528L203.715 187.448L217.023 194.368C216.944 194.52 216.815 194.713 216.638 194.899C216.464 195.083 216.326 195.173 216.296 195.19L208.579 182.328ZM203.715 187.448L190.526 180.304C188.196 184.604 187.051 189.287 187.051 194.104H202.051H217.051C217.051 194.081 217.052 194.153 217.019 194.286C216.986 194.42 216.938 194.53 216.904 194.592L203.715 187.448ZM202.051 194.104H187.051C187.051 198.717 188.095 203.148 190.064 207.251L203.587 200.76L217.11 194.269C217.082 194.211 217.067 194.172 217.06 194.152C217.056 194.141 217.054 194.134 217.053 194.129C217.051 194.125 217.051 194.123 217.051 194.123C217.051 194.123 217.051 194.124 217.051 194.126C217.052 194.127 217.052 194.128 217.052 194.129C217.052 194.13 217.051 194.123 217.051 194.104H202.051ZM203.587 200.76L190.398 207.904C192.789 212.319 196.211 215.87 200.373 218.472L208.323 205.752L216.273 193.032C216.267 193.028 216.357 193.085 216.485 193.22C216.615 193.357 216.714 193.501 216.776 193.616L203.587 200.76ZM208.323 205.752L200.606 218.614C205.294 221.428 210.443 222.672 215.619 222.672V207.672V192.672C215.432 192.672 215.433 192.651 215.564 192.686C215.627 192.702 215.706 192.728 215.794 192.765C215.883 192.802 215.966 192.845 216.04 192.89L208.323 205.752ZM215.619 207.672V222.672H232.899V207.672V192.672H215.619V207.672ZM232.899 207.672V222.672C236.292 222.672 238.274 223.337 239.438 223.984L246.723 210.872L254.008 197.76C247.492 194.14 240.258 192.672 232.899 192.672V207.672ZM246.723 210.872L239.438 223.984C240.955 224.827 241.833 225.768 242.457 226.886L255.555 219.576L268.653 212.266C265.181 206.046 260.171 201.184 254.008 197.76L246.723 210.872ZM255.555 219.576L242.457 226.886C243.117 228.069 243.627 229.681 243.627 232.12H258.627H273.627C273.627 225.173 272.089 218.422 268.653 212.265L255.555 219.576ZM258.627 232.12H243.627C243.627 235.223 243.007 237.446 242.123 239.143L255.427 246.072L268.731 253.001C272.113 246.506 273.627 239.428 273.627 232.12H258.627ZM255.427 246.072L242.068 239.25C241.29 240.774 240.294 241.832 238.878 242.682L246.595 255.544L254.312 268.406C260.576 264.648 265.468 259.392 268.786 252.894L255.427 246.072ZM246.595 255.544L238.878 242.682C237.609 243.443 235.936 244 233.411 244V259V274C240.785 274 247.901 272.253 254.312 268.406L246.595 255.544ZM233.411 259V244H193.219V259V274H233.411V259ZM290.621 256.184L297.745 242.984L297.745 242.984L290.621 256.184ZM277.949 243.64L264.788 250.837L264.831 250.916L264.875 250.994L277.949 243.64ZM273.469 169.4V154.4H258.469V169.4H273.469ZM285.757 169.4H300.757V154.4H285.757V169.4ZM288.573 237.624L301.927 230.792L301.927 230.792L288.573 237.624ZM296.637 246.456L288.604 259.124L288.715 259.194L288.828 259.263L296.637 246.456ZM321.469 246.456L329.278 259.263L329.391 259.194L329.502 259.124L321.469 246.456ZM329.405 237.624L316.051 230.792L315.988 230.916L315.926 231.041L329.405 237.624ZM332.221 169.4V154.4H317.221V169.4H332.221ZM344.509 169.4H359.509V154.4H344.509V169.4ZM339.901 243.64L326.827 236.286L326.783 236.364L326.74 236.443L339.901 243.64ZM327.357 256.184L320.233 242.984L320.189 243.008L320.145 243.032L327.357 256.184ZM309.053 260.536V245.536C304.297 245.536 300.658 244.556 297.745 242.984L290.621 256.184L283.497 269.384C291.336 273.615 299.985 275.536 309.053 275.536V260.536ZM290.621 256.184L297.745 242.984C294.932 241.466 292.742 239.342 291.023 236.286L277.949 243.64L264.875 250.994C269.3 258.86 275.558 265.1 283.497 269.384L290.621 256.184ZM277.949 243.64L291.11 236.443C289.542 233.577 288.469 229.705 288.469 224.312H273.469H258.469C258.469 233.767 260.382 242.78 264.788 250.837L277.949 243.64ZM273.469 224.312H288.469V169.4H273.469H258.469V224.312H273.469ZM273.469 169.4V184.4H285.757V169.4V154.4H273.469V169.4ZM285.757 169.4H270.757V225.592H285.757H300.757V169.4H285.757ZM285.757 225.592H270.757C270.757 232.183 272.199 238.554 275.219 244.456L288.573 237.624L301.927 230.792C301.192 229.356 300.757 227.705 300.757 225.592H285.757ZM288.573 237.624L275.219 244.456C278.324 250.524 282.855 255.478 288.604 259.124L296.637 246.456L304.67 233.788C303.422 232.997 302.577 232.063 301.927 230.792L288.573 237.624ZM296.637 246.456L288.828 259.263C295.046 263.055 301.984 264.656 309.053 264.656V249.656V234.656C306.565 234.656 305.225 234.124 304.446 233.649L296.637 246.456ZM309.053 249.656V264.656C316.122 264.656 323.06 263.055 329.278 259.263L321.469 246.456L313.66 233.649C312.881 234.124 311.541 234.656 309.053 234.656V249.656ZM321.469 246.456L329.502 259.124C335.308 255.442 339.856 250.407 342.884 244.207L329.405 237.624L315.926 231.041C315.37 232.18 314.628 233.033 313.436 233.788L321.469 246.456ZM329.405 237.624L342.759 244.456C345.779 238.554 347.221 232.183 347.221 225.592H332.221H317.221C317.221 227.705 316.786 229.356 316.051 230.792L329.405 237.624ZM332.221 225.592H347.221V169.4H332.221H317.221V225.592H332.221ZM332.221 169.4V184.4H344.509V169.4V154.4H332.221V169.4ZM344.509 169.4H329.509V224.312H344.509H359.509V169.4H344.509ZM344.509 224.312H329.509C329.509 229.637 328.421 233.452 326.827 236.286L339.901 243.64L352.975 250.994C357.525 242.905 359.509 233.835 359.509 224.312H344.509ZM339.901 243.64L326.74 236.443C325.116 239.413 323.009 241.486 320.233 242.984L327.357 256.184L334.481 269.384C342.457 265.08 348.713 258.79 353.062 250.837L339.901 243.64ZM327.357 256.184L320.145 243.032C317.368 244.554 313.815 245.536 309.053 245.536V260.536V275.536C318.115 275.536 326.764 273.616 334.569 269.336L327.357 256.184ZM364.627 230.712H349.627V245.712H364.627V230.712ZM364.627 169.4V154.4H349.627V169.4H364.627ZM376.403 169.4H391.403V154.4H376.403V169.4ZM376.403 230.712V245.712H391.403V230.712H376.403ZM364.499 257.848L353.624 268.179L353.889 268.458L354.168 268.723L364.499 257.848ZM376.403 245.944L365.528 256.275L365.793 256.554L366.072 256.819L376.403 245.944ZM377.811 256.056L364.949 248.339L364.754 248.663L364.576 248.997L377.811 256.056ZM374.867 259.128L367.15 246.266L374.867 259.128ZM364.627 230.712H379.627V169.4H364.627H349.627V230.712H364.627ZM364.627 169.4V184.4H376.403V169.4V154.4H364.627V169.4ZM376.403 169.4H361.403V230.712H376.403H391.403V169.4H376.403ZM376.403 230.712V215.712H364.627V230.712V245.712H376.403V230.712ZM370.515 260.28V245.28C371.163 245.28 372.007 245.402 372.905 245.765C373.797 246.126 374.439 246.601 374.83 246.973L364.499 257.848L354.168 268.723C358.595 272.929 364.274 275.28 370.515 275.28V260.28ZM364.499 257.848L375.374 247.517C375.746 247.908 376.221 248.55 376.582 249.442C376.945 250.34 377.067 251.184 377.067 251.832H362.067H347.067C347.067 258.073 349.418 263.752 353.624 268.179L364.499 257.848ZM362.067 251.832H377.067C377.067 252.477 376.945 253.374 376.539 254.358C376.132 255.344 375.579 256.077 375.106 256.551L364.499 245.944L353.892 235.337C349.443 239.787 347.067 245.571 347.067 251.832H362.067ZM364.499 245.944L375.106 256.551C374.746 256.91 374.102 257.424 373.156 257.826C372.197 258.235 371.264 258.384 370.515 258.384V243.384V228.384C364.027 228.384 358.263 230.967 353.892 235.337L364.499 245.944ZM370.515 243.384V258.384C369.769 258.384 368.781 258.235 367.734 257.78C366.694 257.328 365.963 256.734 365.528 256.275L376.403 245.944L387.278 235.613C382.894 230.998 377.03 228.384 370.515 228.384V243.384ZM376.403 245.944L366.072 256.819C365.613 256.384 365.019 255.653 364.567 254.613C364.112 253.566 363.963 252.578 363.963 251.832H378.963H393.963C393.963 245.317 391.349 239.453 386.734 235.069L376.403 245.944ZM378.963 251.832H363.963C363.963 251.337 364.027 250.741 364.204 250.093C364.381 249.442 364.642 248.849 364.949 248.339L377.811 256.056L390.673 263.773C392.882 260.092 393.963 256.004 393.963 251.832H378.963ZM377.811 256.056L364.576 248.997C364.866 248.454 365.252 247.907 365.733 247.405C366.212 246.906 366.706 246.532 367.15 246.266L374.867 259.128L382.584 271.99C386.125 269.866 389.046 266.866 391.046 263.115L377.811 256.056ZM374.867 259.128L367.15 246.266C368.4 245.515 369.66 245.28 370.515 245.28V260.28V275.28C374.613 275.28 378.774 274.277 382.584 271.99L374.867 259.128ZM397.877 230.712H382.877V245.712H397.877V230.712ZM397.877 169.4V154.4H382.877V169.4H397.877ZM409.653 169.4H424.653V154.4H409.653V169.4ZM409.653 230.712V245.712H424.653V230.712H409.653ZM397.749 257.848L386.874 268.179L387.139 268.458L387.418 268.723L397.749 257.848ZM409.653 245.944L398.778 256.275L399.043 256.554L399.322 256.819L409.653 245.944ZM411.061 256.056L398.199 248.339L398.004 248.663L397.826 248.997L411.061 256.056ZM408.117 259.128L400.4 246.266L408.117 259.128ZM397.877 230.712H412.877V169.4H397.877H382.877V230.712H397.877ZM397.877 169.4V184.4H409.653V169.4V154.4H397.877V169.4ZM409.653 169.4H394.653V230.712H409.653H424.653V169.4H409.653ZM409.653 230.712V215.712H397.877V230.712V245.712H409.653V230.712ZM403.765 260.28V245.28C404.413 245.28 405.257 245.402 406.155 245.765C407.047 246.126 407.689 246.601 408.08 246.973L397.749 257.848L387.418 268.723C391.845 272.929 397.524 275.28 403.765 275.28V260.28ZM397.749 257.848L408.624 247.517C408.996 247.908 409.471 248.55 409.832 249.442C410.195 250.34 410.317 251.184 410.317 251.832H395.317H380.317C380.317 258.073 382.668 263.752 386.874 268.179L397.749 257.848ZM395.317 251.832H410.317C410.317 252.477 410.195 253.374 409.789 254.358C409.382 255.344 408.829 256.077 408.356 256.551L397.749 245.944L387.142 235.337C382.693 239.787 380.317 245.571 380.317 251.832H395.317ZM397.749 245.944L408.356 256.551C407.996 256.91 407.352 257.424 406.406 257.826C405.447 258.235 404.514 258.384 403.765 258.384V243.384V228.384C397.277 228.384 391.513 230.967 387.142 235.337L397.749 245.944ZM403.765 243.384V258.384C403.019 258.384 402.031 258.235 400.984 257.78C399.944 257.328 399.213 256.734 398.778 256.275L409.653 245.944L420.528 235.613C416.144 230.998 410.28 228.384 403.765 228.384V243.384ZM409.653 245.944L399.322 256.819C398.863 256.384 398.269 255.653 397.817 254.613C397.362 253.566 397.213 252.578 397.213 251.832H412.213H427.213C427.213 245.317 424.599 239.453 419.984 235.069L409.653 245.944ZM412.213 251.832H397.213C397.213 251.337 397.277 250.741 397.454 250.093C397.631 249.442 397.892 248.849 398.199 248.339L411.061 256.056L423.923 263.773C426.132 260.092 427.213 256.004 427.213 251.832H412.213ZM411.061 256.056L397.826 248.997C398.116 248.454 398.502 247.907 398.983 247.405C399.462 246.906 399.956 246.532 400.4 246.266L408.117 259.128L415.834 271.99C419.375 269.866 422.296 266.866 424.296 263.115L411.061 256.056ZM408.117 259.128L400.4 246.266C401.65 245.515 402.91 245.28 403.765 245.28V260.28V275.28C407.863 275.28 412.024 274.277 415.834 271.99L408.117 259.128Z" fill="#F2EAF5" mask="url(#path-2-outside-1_210_166)"/>
<circle cx="132" cy="214" r="45" fill="#F2EAF5"/>
<path d="M149.419 203.839C147.006 203.839 145.065 205.78 145.065 208.194C145.065 210.607 147.006 212.548 149.419 212.548C151.833 212.548 153.774 210.607 153.774 208.194C153.774 205.78 151.833 203.839 149.419 203.839ZM114.581 203.839C112.167 203.839 110.226 205.78 110.226 208.194C110.226 210.607 112.167 212.548 114.581 212.548C116.994 212.548 118.935 210.607 118.935 208.194C118.935 205.78 116.994 203.839 114.581 203.839ZM132 169C107.141 169 87 189.141 87 214C87 238.859 107.141 259 132 259C156.859 259 177 238.859 177 214C177 189.141 156.859 169 132 169ZM101.516 208.194C101.516 200.972 107.359 195.129 114.581 195.129C121.802 195.129 127.645 200.972 127.645 208.194C127.645 215.415 121.802 221.258 114.581 221.258C107.359 221.258 101.516 215.415 101.516 208.194ZM143.613 240.129H120.387C116.54 240.129 116.54 234.323 120.387 234.323H143.613C147.46 234.323 147.46 240.129 143.613 240.129ZM149.419 221.258C142.198 221.258 136.355 215.415 136.355 208.194C136.355 200.972 142.198 195.129 149.419 195.129C156.641 195.129 162.484 200.972 162.484 208.194C162.484 215.415 156.641 221.258 149.419 221.258Z" fill="#934AB3"/>
<mask id="path-6-outside-2_210_166" maskUnits="userSpaceOnUse" x="16.1001" y="40" width="399" height="124" fill="black">
<rect fill="white" x="16.1001" y="40" width="399" height="124"/>
<path d="M92.8601 148.536C88.0814 148.536 83.8574 147.469 80.1881 145.336C76.6041 143.117 73.7881 140.131 71.7401 136.376C69.6921 132.621 68.6681 128.397 68.6681 123.704V79.032C68.6681 76.728 68.1134 74.6373 67.0041 72.76C65.8948 70.8827 64.4014 69.3893 62.5241 68.28C60.6468 67.1707 58.5988 66.616 56.3801 66.616C54.1614 66.616 52.1134 67.1707 50.2361 68.28C48.4441 69.3893 46.9934 70.8827 45.8841 72.76C44.8601 74.6373 44.3481 76.728 44.3481 79.032V147H32.0601V80.696C32.0601 76.0027 33.0841 71.7787 35.1321 68.024C37.1801 64.2693 40.0388 61.3253 43.7081 59.192C47.3774 56.9733 51.6014 55.864 56.3801 55.864C61.2441 55.864 65.5108 56.9733 69.1801 59.192C72.8494 61.3253 75.7081 64.2693 77.7561 68.024C79.8041 71.7787 80.8281 76.0027 80.8281 80.696V125.368C80.8281 127.672 81.3828 129.763 82.4921 131.64C83.6014 133.517 85.0521 135.011 86.8441 136.12C88.7214 137.229 90.7268 137.784 92.8601 137.784C94.9934 137.784 96.9561 137.229 98.7481 136.12C100.54 135.011 101.948 133.517 102.972 131.64C104.081 129.763 104.636 127.672 104.636 125.368V57.4H116.924V123.704C116.924 128.397 115.9 132.621 113.852 136.376C111.804 140.131 108.988 143.117 105.404 145.336C101.82 147.469 97.6388 148.536 92.8601 148.536ZM177.818 148.664C170.735 148.664 164.335 147.469 158.618 145.08C152.901 142.605 147.994 139.235 143.898 134.968C139.887 130.701 136.773 125.752 134.554 120.12C132.335 114.488 131.226 108.472 131.226 102.072C131.226 95.7573 132.335 89.784 134.554 84.152C136.773 78.52 139.887 73.5707 143.898 69.304C147.994 65.0373 152.901 61.7093 158.618 59.32C164.335 56.9307 170.735 55.736 177.818 55.736C184.901 55.736 191.301 56.9307 197.018 59.32C202.735 61.7093 207.599 65.0373 211.61 69.304C215.706 73.5707 218.863 78.52 221.082 84.152C223.301 89.784 224.41 95.8 224.41 102.2C224.41 108.515 223.301 114.488 221.082 120.12C218.863 125.752 215.706 130.701 211.61 134.968C207.599 139.235 202.735 142.605 197.018 145.08C191.301 147.469 184.901 148.664 177.818 148.664ZM177.818 137.784C182.682 137.784 187.205 136.888 191.386 135.096C195.567 133.304 199.194 130.787 202.266 127.544C205.423 124.301 207.855 120.547 209.562 116.28C211.269 111.928 212.122 107.192 212.122 102.072C212.122 97.0373 211.269 92.344 209.562 87.992C207.855 83.64 205.466 79.8853 202.394 76.728C199.322 73.4853 195.653 71.0107 191.386 69.304C187.205 67.512 182.682 66.616 177.818 66.616C172.869 66.616 168.303 67.512 164.122 69.304C159.941 71.0107 156.314 73.4853 153.242 76.728C150.17 79.8853 147.781 83.64 146.074 87.992C144.367 92.344 143.514 97.08 143.514 102.2C143.514 107.235 144.367 111.928 146.074 116.28C147.781 120.547 150.17 124.301 153.242 127.544C156.314 130.787 159.941 133.304 164.122 135.096C168.303 136.888 172.869 137.784 177.818 137.784ZM279.738 147C274.874 147 270.65 145.976 267.066 143.928C263.567 141.795 260.837 138.936 258.874 135.352C256.997 131.683 256.058 127.587 256.058 123.064V68.28H228.794V57.4H295.61V68.28H268.346V124.6C268.346 127.928 269.37 130.701 271.418 132.92C273.551 135.053 276.367 136.12 279.866 136.12H285.754V147H279.738ZM373.49 111.288C370.845 111.288 368.37 110.904 366.066 110.136C363.847 109.283 361.757 108.301 359.794 107.192C357.917 105.997 355.997 105.016 354.034 104.248C352.157 103.395 350.194 102.968 348.146 102.968C345.927 102.968 343.794 103.48 341.746 104.504C339.698 105.528 337.437 107.192 334.962 109.496L329.33 102.456C332.573 99.2133 335.687 96.7813 338.674 95.16C341.746 93.4533 344.861 92.6 348.018 92.6C350.578 92.6 352.967 93.0267 355.186 93.88C357.405 94.7333 359.453 95.7147 361.33 96.824C363.293 97.9333 365.255 98.9147 367.218 99.768C369.181 100.621 371.271 101.048 373.49 101.048C375.453 101.048 377.245 100.707 378.866 100.024C380.573 99.256 382.237 98.2747 383.858 97.08C385.479 95.8 387.058 94.4347 388.594 92.984L394.354 100.024C390.343 103.864 386.717 106.723 383.474 108.6C380.231 110.392 376.903 111.288 373.49 111.288Z"/>
</mask>
<path d="M92.8601 148.536C88.0814 148.536 83.8574 147.469 80.1881 145.336C76.6041 143.117 73.7881 140.131 71.7401 136.376C69.6921 132.621 68.6681 128.397 68.6681 123.704V79.032C68.6681 76.728 68.1134 74.6373 67.0041 72.76C65.8948 70.8827 64.4014 69.3893 62.5241 68.28C60.6468 67.1707 58.5988 66.616 56.3801 66.616C54.1614 66.616 52.1134 67.1707 50.2361 68.28C48.4441 69.3893 46.9934 70.8827 45.8841 72.76C44.8601 74.6373 44.3481 76.728 44.3481 79.032V147H32.0601V80.696C32.0601 76.0027 33.0841 71.7787 35.1321 68.024C37.1801 64.2693 40.0388 61.3253 43.7081 59.192C47.3774 56.9733 51.6014 55.864 56.3801 55.864C61.2441 55.864 65.5108 56.9733 69.1801 59.192C72.8494 61.3253 75.7081 64.2693 77.7561 68.024C79.8041 71.7787 80.8281 76.0027 80.8281 80.696V125.368C80.8281 127.672 81.3828 129.763 82.4921 131.64C83.6014 133.517 85.0521 135.011 86.8441 136.12C88.7214 137.229 90.7268 137.784 92.8601 137.784C94.9934 137.784 96.9561 137.229 98.7481 136.12C100.54 135.011 101.948 133.517 102.972 131.64C104.081 129.763 104.636 127.672 104.636 125.368V57.4H116.924V123.704C116.924 128.397 115.9 132.621 113.852 136.376C111.804 140.131 108.988 143.117 105.404 145.336C101.82 147.469 97.6388 148.536 92.8601 148.536ZM177.818 148.664C170.735 148.664 164.335 147.469 158.618 145.08C152.901 142.605 147.994 139.235 143.898 134.968C139.887 130.701 136.773 125.752 134.554 120.12C132.335 114.488 131.226 108.472 131.226 102.072C131.226 95.7573 132.335 89.784 134.554 84.152C136.773 78.52 139.887 73.5707 143.898 69.304C147.994 65.0373 152.901 61.7093 158.618 59.32C164.335 56.9307 170.735 55.736 177.818 55.736C184.901 55.736 191.301 56.9307 197.018 59.32C202.735 61.7093 207.599 65.0373 211.61 69.304C215.706 73.5707 218.863 78.52 221.082 84.152C223.301 89.784 224.41 95.8 224.41 102.2C224.41 108.515 223.301 114.488 221.082 120.12C218.863 125.752 215.706 130.701 211.61 134.968C207.599 139.235 202.735 142.605 197.018 145.08C191.301 147.469 184.901 148.664 177.818 148.664ZM177.818 137.784C182.682 137.784 187.205 136.888 191.386 135.096C195.567 133.304 199.194 130.787 202.266 127.544C205.423 124.301 207.855 120.547 209.562 116.28C211.269 111.928 212.122 107.192 212.122 102.072C212.122 97.0373 211.269 92.344 209.562 87.992C207.855 83.64 205.466 79.8853 202.394 76.728C199.322 73.4853 195.653 71.0107 191.386 69.304C187.205 67.512 182.682 66.616 177.818 66.616C172.869 66.616 168.303 67.512 164.122 69.304C159.941 71.0107 156.314 73.4853 153.242 76.728C150.17 79.8853 147.781 83.64 146.074 87.992C144.367 92.344 143.514 97.08 143.514 102.2C143.514 107.235 144.367 111.928 146.074 116.28C147.781 120.547 150.17 124.301 153.242 127.544C156.314 130.787 159.941 133.304 164.122 135.096C168.303 136.888 172.869 137.784 177.818 137.784ZM279.738 147C274.874 147 270.65 145.976 267.066 143.928C263.567 141.795 260.837 138.936 258.874 135.352C256.997 131.683 256.058 127.587 256.058 123.064V68.28H228.794V57.4H295.61V68.28H268.346V124.6C268.346 127.928 269.37 130.701 271.418 132.92C273.551 135.053 276.367 136.12 279.866 136.12H285.754V147H279.738ZM373.49 111.288C370.845 111.288 368.37 110.904 366.066 110.136C363.847 109.283 361.757 108.301 359.794 107.192C357.917 105.997 355.997 105.016 354.034 104.248C352.157 103.395 350.194 102.968 348.146 102.968C345.927 102.968 343.794 103.48 341.746 104.504C339.698 105.528 337.437 107.192 334.962 109.496L329.33 102.456C332.573 99.2133 335.687 96.7813 338.674 95.16C341.746 93.4533 344.861 92.6 348.018 92.6C350.578 92.6 352.967 93.0267 355.186 93.88C357.405 94.7333 359.453 95.7147 361.33 96.824C363.293 97.9333 365.255 98.9147 367.218 99.768C369.181 100.621 371.271 101.048 373.49 101.048C375.453 101.048 377.245 100.707 378.866 100.024C380.573 99.256 382.237 98.2747 383.858 97.08C385.479 95.8 387.058 94.4347 388.594 92.984L394.354 100.024C390.343 103.864 386.717 106.723 383.474 108.6C380.231 110.392 376.903 111.288 373.49 111.288Z" fill="#934AB3"/>
<path d="M80.1881 145.336L72.2928 158.09L72.4693 158.199L72.6488 158.304L80.1881 145.336ZM71.7401 136.376L84.9085 129.193L84.9085 129.193L71.7401 136.376ZM67.0041 72.76L79.918 65.1291L79.918 65.1291L67.0041 72.76ZM62.5241 68.28L54.8932 81.1939L54.8932 81.1939L62.5241 68.28ZM50.2361 68.28L42.6052 55.3661L42.4722 55.4447L42.3408 55.526L50.2361 68.28ZM45.8841 72.76L32.9702 65.1291L32.8391 65.3509L32.7157 65.5772L45.8841 72.76ZM44.3481 147V162H59.3481V147H44.3481ZM32.0601 147H17.0601V162H32.0601V147ZM35.1321 68.024L21.9637 60.8412L21.9637 60.8412L35.1321 68.024ZM43.7081 59.192L51.2474 72.1596L51.359 72.0947L51.4694 72.028L43.7081 59.192ZM69.1801 59.192L61.4188 72.028L61.5292 72.0947L61.6408 72.1596L69.1801 59.192ZM77.7561 68.024L90.9245 60.8412L90.9245 60.8412L77.7561 68.024ZM82.4921 131.64L69.5782 139.271L69.5782 139.271L82.4921 131.64ZM86.8441 136.12L78.9488 148.874L79.0801 148.955L79.2132 149.034L86.8441 136.12ZM98.7481 136.12L90.8528 123.366L90.8528 123.366L98.7481 136.12ZM102.972 131.64L90.0582 124.009L89.9271 124.231L89.8037 124.457L102.972 131.64ZM104.636 57.4V42.4H89.6361V57.4H104.636ZM116.924 57.4H131.924V42.4H116.924V57.4ZM113.852 136.376L100.684 129.193L100.684 129.193L113.852 136.376ZM105.404 145.336L113.076 158.225L113.188 158.159L113.299 158.09L105.404 145.336ZM92.8601 148.536V133.536C90.3895 133.536 88.8298 133.009 87.7274 132.368L80.1881 145.336L72.6488 158.304C78.8851 161.929 85.7733 163.536 92.8601 163.536V148.536ZM80.1881 145.336L88.0834 132.582C86.744 131.753 85.7305 130.7 84.9085 129.193L71.7401 136.376L58.5717 143.559C61.8457 149.561 66.4642 154.482 72.2928 158.09L80.1881 145.336ZM71.7401 136.376L84.9085 129.193C84.1766 127.851 83.6681 126.138 83.6681 123.704H68.6681H53.6681C53.6681 130.657 55.2076 137.391 58.5717 143.559L71.7401 136.376ZM68.6681 123.704H83.6681V79.032H68.6681H53.6681V123.704H68.6681ZM68.6681 79.032H83.6681C83.6681 74.2016 82.4713 69.45 79.918 65.1291L67.0041 72.76L54.0902 80.3909C53.9516 80.1564 53.8316 79.8762 53.7537 79.5825C53.6771 79.2938 53.6681 79.0941 53.6681 79.032H68.6681ZM67.0041 72.76L79.918 65.1291C77.5214 61.0733 74.2107 57.7626 70.155 55.3661L62.5241 68.28L54.8932 81.1939C54.7824 81.1284 54.6185 81.0116 54.4455 80.8386C54.2725 80.6656 54.1557 80.5017 54.0902 80.3909L67.0041 72.76ZM62.5241 68.28L70.155 55.3661C65.9245 52.8662 61.234 51.616 56.3801 51.616V66.616V81.616C56.2256 81.616 55.9704 81.5948 55.6589 81.5104C55.3458 81.4256 55.0827 81.3059 54.8932 81.1939L62.5241 68.28ZM56.3801 66.616V51.616C51.5262 51.616 46.8357 52.8662 42.6052 55.3661L50.2361 68.28L57.867 81.1939C57.6775 81.3059 57.4144 81.4256 57.1013 81.5104C56.7898 81.5948 56.5346 81.616 56.3801 81.616V66.616ZM50.2361 68.28L42.3408 55.526C38.4135 57.9572 35.2693 61.2383 32.9702 65.1291L45.8841 72.76L58.798 80.3909C58.7772 80.4261 58.7036 80.5394 58.5633 80.6838C58.4214 80.8299 58.2678 80.9496 58.1314 81.034L50.2361 68.28ZM45.8841 72.76L32.7157 65.5772C30.3977 69.8269 29.3481 74.418 29.3481 79.032H44.3481H59.3481C59.3481 78.9982 59.3509 79.1026 59.3016 79.304C59.2509 79.5108 59.166 79.7347 59.0525 79.9428L45.8841 72.76ZM44.3481 79.032H29.3481V147H44.3481H59.3481V79.032H44.3481ZM44.3481 147V132H32.0601V147V162H44.3481V147ZM32.0601 147H47.0601V80.696H32.0601H17.0601V147H32.0601ZM32.0601 80.696H47.0601C47.0601 78.2625 47.5686 76.5486 48.3005 75.2068L35.1321 68.024L21.9637 60.8412C18.5996 67.0087 17.0601 73.7429 17.0601 80.696H32.0601ZM35.1321 68.024L48.3005 75.2068C49.0466 73.8391 49.9668 72.9041 51.2474 72.1596L43.7081 59.192L36.1688 46.2244C30.1107 49.7465 25.3136 54.6996 21.9637 60.8412L35.1321 68.024ZM43.7081 59.192L51.4694 72.028C52.5366 71.3827 54.0157 70.864 56.3801 70.864V55.864V40.864C49.1872 40.864 42.2183 42.5639 35.9468 46.356L43.7081 59.192ZM56.3801 55.864V70.864C58.8839 70.864 60.3928 71.4076 61.4188 72.028L69.1801 59.192L76.9414 46.356C70.6288 42.5391 63.6043 40.864 56.3801 40.864V55.864ZM69.1801 59.192L61.6408 72.1596C62.9214 72.9041 63.8416 73.8391 64.5877 75.2068L77.7561 68.024L90.9245 60.8412C87.5746 54.6996 82.7775 49.7465 76.7194 46.2244L69.1801 59.192ZM77.7561 68.024L64.5877 75.2068C65.3196 76.5486 65.8281 78.2625 65.8281 80.696H80.8281H95.8281C95.8281 73.7429 94.2886 67.0087 90.9245 60.8412L77.7561 68.024ZM80.8281 80.696H65.8281V125.368H80.8281H95.8281V80.696H80.8281ZM80.8281 125.368H65.8281C65.8281 130.198 67.0249 134.95 69.5782 139.271L82.4921 131.64L95.406 124.009C95.5446 124.244 95.6646 124.524 95.7425 124.817C95.8191 125.106 95.8281 125.306 95.8281 125.368H80.8281ZM82.4921 131.64L69.5782 139.271C71.8773 143.162 75.0215 146.443 78.9488 148.874L86.8441 136.12L94.7394 123.366C94.8758 123.45 95.0294 123.57 95.1713 123.716C95.3116 123.861 95.3852 123.974 95.406 124.009L82.4921 131.64ZM86.8441 136.12L79.2132 149.034C83.3479 151.477 87.9805 152.784 92.8601 152.784V137.784V122.784C93.1102 122.784 93.4223 122.819 93.7549 122.911C94.0854 123.002 94.3309 123.121 94.475 123.206L86.8441 136.12ZM92.8601 137.784V152.784C97.7468 152.784 102.449 151.47 106.643 148.874L98.7481 136.12L90.8528 123.366C91.1045 123.21 91.4457 123.048 91.8527 122.933C92.2586 122.819 92.6111 122.784 92.8601 122.784V137.784ZM98.7481 136.12L106.643 148.874C110.68 146.375 113.891 142.948 116.141 138.823L102.972 131.64L89.8037 124.457C89.8812 124.315 90.0205 124.105 90.2343 123.878C90.4489 123.65 90.6697 123.479 90.8528 123.366L98.7481 136.12ZM102.972 131.64L115.886 139.271C118.439 134.95 119.636 130.198 119.636 125.368H104.636H89.6361C89.6361 125.306 89.6451 125.106 89.7217 124.817C89.7996 124.524 89.9196 124.244 90.0582 124.009L102.972 131.64ZM104.636 125.368H119.636V57.4H104.636H89.6361V125.368H104.636ZM104.636 57.4V72.4H116.924V57.4V42.4H104.636V57.4ZM116.924 57.4H101.924V123.704H116.924H131.924V57.4H116.924ZM116.924 123.704H101.924C101.924 126.138 101.416 127.851 100.684 129.193L113.852 136.376L127.021 143.559C130.385 137.391 131.924 130.657 131.924 123.704H116.924ZM113.852 136.376L100.684 129.193C99.8617 130.7 98.8482 131.753 97.5088 132.582L105.404 145.336L113.299 158.09C119.128 154.482 123.747 149.561 127.021 143.559L113.852 136.376ZM105.404 145.336L97.7318 132.447C96.7903 133.007 95.3386 133.536 92.8601 133.536V148.536V163.536C99.9389 163.536 106.85 161.932 113.076 158.225L105.404 145.336ZM158.618 145.08L152.66 158.846L152.747 158.883L152.834 158.92L158.618 145.08ZM143.898 134.968L132.969 145.242L133.023 145.299L133.077 145.356L143.898 134.968ZM134.554 120.12L120.598 125.618L120.598 125.618L134.554 120.12ZM134.554 84.152L120.598 78.6541L134.554 84.152ZM143.898 69.304L133.077 58.916L133.023 58.9729L132.969 59.0303L143.898 69.304ZM158.618 59.32L152.834 45.48L152.834 45.48L158.618 59.32ZM197.018 59.32L202.802 45.48L202.802 45.48L197.018 59.32ZM211.61 69.304L200.681 79.5776L200.735 79.6351L200.789 79.692L211.61 69.304ZM221.082 84.152L207.126 89.6499L207.126 89.6499L221.082 84.152ZM221.082 120.12L207.126 114.622L207.126 114.622L221.082 120.12ZM211.61 134.968L200.789 124.58L200.735 124.637L200.681 124.694L211.61 134.968ZM197.018 145.08L202.802 158.92L202.889 158.883L202.976 158.846L197.018 145.08ZM191.386 135.096L185.477 121.309L185.477 121.309L191.386 135.096ZM202.266 127.544L191.519 117.08L191.447 117.153L191.377 117.228L202.266 127.544ZM209.562 116.28L223.489 121.851L223.508 121.804L223.527 121.756L209.562 116.28ZM209.562 87.992L223.527 82.5157L223.527 82.5157L209.562 87.992ZM202.394 76.728L191.505 87.0442L191.574 87.1167L191.643 87.1883L202.394 76.728ZM191.386 69.304L185.477 83.0912L185.645 83.1632L185.815 83.2311L191.386 69.304ZM164.122 69.304L169.791 83.1917L169.911 83.1425L170.031 83.0912L164.122 69.304ZM153.242 76.728L163.993 87.1883L164.063 87.1167L164.131 87.0442L153.242 76.728ZM146.074 116.28L132.11 121.756L132.128 121.804L132.147 121.851L146.074 116.28ZM153.242 127.544L164.131 117.228L164.131 117.228L153.242 127.544ZM164.122 135.096L170.031 121.309L170.031 121.309L164.122 135.096ZM177.818 148.664V133.664C172.439 133.664 168.044 132.762 164.402 131.24L158.618 145.08L152.834 158.92C160.627 162.177 169.032 163.664 177.818 163.664V148.664ZM158.618 145.08L164.576 131.314C160.589 129.588 157.362 127.333 154.719 124.58L143.898 134.968L133.077 145.356C138.627 151.136 145.212 155.622 152.66 158.846L158.618 145.08ZM143.898 134.968L154.828 124.694C152.163 121.86 150.056 118.546 148.51 114.622L134.554 120.12L120.598 125.618C123.49 132.958 127.611 139.542 132.969 145.242L143.898 134.968ZM134.554 120.12L148.51 114.622C147.02 110.84 146.226 106.699 146.226 102.072H131.226H116.226C116.226 110.245 117.651 118.136 120.598 125.618L134.554 120.12ZM131.226 102.072H146.226C146.226 97.5567 147.011 93.4557 148.51 89.6499L134.554 84.152L120.598 78.6541C117.66 86.1123 116.226 93.958 116.226 102.072H131.226ZM134.554 84.152L148.51 89.6499C150.056 85.7265 152.163 82.4118 154.828 79.5776L143.898 69.304L132.969 59.0303C127.611 64.7295 123.49 71.3135 120.598 78.6541L134.554 84.152ZM143.898 69.304L154.719 79.692C157.323 76.9797 160.49 74.7948 164.402 73.16L158.618 59.32L152.834 45.48C145.311 48.6239 138.665 53.095 133.077 58.916L143.898 69.304ZM158.618 59.32L164.402 73.16C168.044 71.6381 172.439 70.736 177.818 70.736V55.736V40.736C169.032 40.736 160.627 42.2232 152.834 45.48L158.618 59.32ZM177.818 55.736V70.736C183.197 70.736 187.593 71.6381 191.234 73.16L197.018 59.32L202.802 45.48C195.009 42.2232 186.604 40.736 177.818 40.736V55.736ZM197.018 59.32L191.234 73.16C195.12 74.784 198.199 76.9371 200.681 79.5776L211.61 69.304L222.54 59.0303C217 53.1376 210.351 48.6347 202.802 45.48L197.018 59.32ZM211.61 69.304L200.789 79.692C203.499 82.515 205.607 85.793 207.126 89.6499L221.082 84.152L235.038 78.6541C232.12 71.247 227.913 64.6263 222.431 58.916L211.61 69.304ZM221.082 84.152L207.126 89.6499C208.616 93.4322 209.41 97.5728 209.41 102.2H224.41H239.41C239.41 94.0272 237.986 86.1358 235.038 78.6541L221.082 84.152ZM224.41 102.2H209.41C209.41 106.715 208.625 110.816 207.126 114.622L221.082 120.12L235.038 125.618C237.976 118.16 239.41 110.314 239.41 102.2H224.41ZM221.082 120.12L207.126 114.622C205.607 118.479 203.499 121.757 200.789 124.58L211.61 134.968L222.431 145.356C227.913 139.646 232.12 133.025 235.038 125.618L221.082 120.12ZM211.61 134.968L200.681 124.694C198.16 127.376 195.021 129.6 191.06 131.314L197.018 145.08L202.976 158.846C210.45 155.611 217.039 151.093 222.54 145.242L211.61 134.968ZM197.018 145.08L191.234 131.24C187.593 132.762 183.197 133.664 177.818 133.664V148.664V163.664C186.604 163.664 195.009 162.177 202.802 158.92L197.018 145.08ZM177.818 137.784V152.784C184.571 152.784 191.12 151.53 197.295 148.883L191.386 135.096L185.477 121.309C183.29 122.246 180.793 122.784 177.818 122.784V137.784ZM191.386 135.096L197.295 148.883C203.32 146.301 208.651 142.615 213.155 137.86L202.266 127.544L191.377 117.228C189.737 118.958 187.815 120.307 185.477 121.309L191.386 135.096ZM202.266 127.544L213.013 138.008C217.562 133.336 221.065 127.912 223.489 121.851L209.562 116.28L195.635 110.709C194.646 113.181 193.285 115.266 191.519 117.08L202.266 127.544ZM209.562 116.28L223.527 121.756C225.98 115.5 227.122 108.887 227.122 102.072H212.122H197.122C197.122 105.497 196.558 108.356 195.598 110.804L209.562 116.28ZM212.122 102.072H227.122C227.122 95.3086 225.969 88.7428 223.527 82.5157L209.562 87.992L195.598 93.4683C196.569 95.9452 197.122 98.7661 197.122 102.072H212.122ZM209.562 87.992L223.527 82.5157C221.136 76.4204 217.693 70.9421 213.145 66.2677L202.394 76.728L191.643 87.1883C193.239 88.8285 194.574 90.8596 195.598 93.4683L209.562 87.992ZM202.394 76.728L213.283 66.4118C208.677 61.5494 203.177 57.8649 196.957 55.3768L191.386 69.304L185.815 83.2311C188.129 84.1565 189.967 85.4213 191.505 87.0442L202.394 76.728ZM191.386 69.304L197.295 55.5168C191.12 52.8703 184.571 51.616 177.818 51.616V66.616V81.616C180.793 81.616 183.29 82.1537 185.477 83.0912L191.386 69.304ZM177.818 66.616V51.616C171.018 51.616 164.421 52.8565 158.213 55.5168L164.122 69.304L170.031 83.0912C172.186 82.1675 174.72 81.616 177.818 81.616V66.616ZM164.122 69.304L158.454 55.4163C152.32 57.9196 146.908 61.6035 142.353 66.4118L153.242 76.728L164.131 87.0442C165.72 85.3672 167.561 84.1017 169.791 83.1917L164.122 69.304ZM153.242 76.728L142.491 66.2677C137.943 70.9421 134.5 76.4204 132.11 82.5157L146.074 87.992L160.039 93.4683C161.062 90.8596 162.397 88.8285 163.993 87.1883L153.242 76.728ZM146.074 87.992L132.11 82.5157C129.656 88.7716 128.514 95.3848 128.514 102.2H143.514H158.514C158.514 98.7751 159.079 95.9164 160.039 93.4683L146.074 87.992ZM143.514 102.2H128.514C128.514 108.963 129.668 115.529 132.11 121.756L146.074 116.28L160.039 110.804C159.067 108.327 158.514 105.506 158.514 102.2H143.514ZM146.074 116.28L132.147 121.851C134.537 127.825 137.94 133.202 142.353 137.86L153.242 127.544L164.131 117.228C162.4 115.401 161.025 113.268 160.001 110.709L146.074 116.28ZM153.242 127.544L142.353 137.86C146.857 142.615 152.188 146.301 158.213 148.883L164.122 135.096L170.031 121.309C167.693 120.307 165.771 118.958 164.131 117.228L153.242 127.544ZM164.122 135.096L158.213 148.883C164.421 151.543 171.018 152.784 177.818 152.784V137.784V122.784C174.72 122.784 172.186 122.233 170.031 121.309L164.122 135.096ZM267.066 143.928L259.257 156.735L259.439 156.846L259.624 156.952L267.066 143.928ZM258.874 135.352L245.52 142.184L245.616 142.372L245.718 142.557L258.874 135.352ZM256.058 68.28H271.058V53.28H256.058V68.28ZM228.794 68.28H213.794V83.28H228.794V68.28ZM228.794 57.4V42.4H213.794V57.4H228.794ZM295.61 57.4H310.61V42.4H295.61V57.4ZM295.61 68.28V83.28H310.61V68.28H295.61ZM268.346 68.28V53.28H253.346V68.28H268.346ZM271.418 132.92L260.396 143.094L260.599 143.315L260.811 143.527L271.418 132.92ZM285.754 136.12H300.754V121.12H285.754V136.12ZM285.754 147V162H300.754V147H285.754ZM279.738 147V132C277.016 132 275.451 131.443 274.508 130.904L267.066 143.928L259.624 156.952C265.849 160.509 272.732 162 279.738 162V147ZM267.066 143.928L274.875 131.121C273.612 130.351 272.728 129.421 272.031 128.147L258.874 135.352L245.718 142.557C248.945 148.451 253.523 153.239 259.257 156.735L267.066 143.928ZM258.874 135.352L272.228 128.52C271.535 127.165 271.058 125.446 271.058 123.064H256.058H241.058C241.058 129.727 242.459 136.2 245.52 142.184L258.874 135.352ZM256.058 123.064H271.058V68.28H256.058H241.058V123.064H256.058ZM256.058 68.28V53.28H228.794V68.28V83.28H256.058V68.28ZM228.794 68.28H243.794V57.4H228.794H213.794V68.28H228.794ZM228.794 57.4V72.4H295.61V57.4V42.4H228.794V57.4ZM295.61 57.4H280.61V68.28H295.61H310.61V57.4H295.61ZM295.61 68.28V53.28H268.346V68.28V83.28H295.61V68.28ZM268.346 68.28H253.346V124.6H268.346H283.346V68.28H268.346ZM268.346 124.6H253.346C253.346 131.281 255.52 137.812 260.396 143.094L271.418 132.92L282.44 122.746C282.72 123.049 283.002 123.484 283.186 123.98C283.36 124.453 283.346 124.712 283.346 124.6H268.346ZM271.418 132.92L260.811 143.527C266.209 148.924 273.076 151.12 279.866 151.12V136.12V121.12C279.643 121.12 279.903 121.088 280.444 121.293C281.026 121.513 281.592 121.881 282.025 122.313L271.418 132.92ZM279.866 136.12V151.12H285.754V136.12V121.12H279.866V136.12ZM285.754 136.12H270.754V147H285.754H300.754V136.12H285.754ZM285.754 147V132H279.738V147V162H285.754V147ZM366.066 110.136L360.681 124.136L360.999 124.258L361.323 124.366L366.066 110.136ZM359.794 107.192L351.741 119.847L352.072 120.057L352.413 120.25L359.794 107.192ZM354.034 104.248L347.827 117.903L348.193 118.07L348.568 118.217L354.034 104.248ZM341.746 104.504L335.038 91.0876L335.038 91.0876L341.746 104.504ZM334.962 109.496L323.249 118.866L333.35 131.492L345.183 120.474L334.962 109.496ZM329.33 102.456L318.723 91.8494L309.23 101.343L317.617 111.826L329.33 102.456ZM338.674 95.16L345.83 108.343L345.895 108.308L345.959 108.272L338.674 95.16ZM355.186 93.88L360.571 79.8798L360.571 79.8798L355.186 93.88ZM361.33 96.824L353.699 109.738L353.824 109.811L353.949 109.882L361.33 96.824ZM367.218 99.768L373.199 86.0119L373.199 86.0119L367.218 99.768ZM378.866 100.024L384.687 113.849L384.855 113.778L385.022 113.703L378.866 100.024ZM383.858 97.08L392.756 109.156L392.957 109.008L393.153 108.853L383.858 97.08ZM388.594 92.984L400.203 83.4854L390.004 71.0198L378.295 82.0788L388.594 92.984ZM394.354 100.024L404.728 110.859L414.749 101.264L405.963 90.5254L394.354 100.024ZM383.474 108.6L390.729 121.729L390.86 121.656L390.99 121.581L383.474 108.6ZM373.49 111.288V96.288C372.314 96.288 371.454 96.1205 370.81 95.9057L366.066 110.136L361.323 124.366C365.287 125.688 369.376 126.288 373.49 126.288V111.288ZM366.066 110.136L371.451 96.1358C369.883 95.5327 368.463 94.8614 367.175 94.1336L359.794 107.192L352.413 120.25C355.051 121.741 357.812 123.033 360.681 124.136L366.066 110.136ZM359.794 107.192L367.847 94.5371C365.197 92.8508 362.414 91.4197 359.5 90.2794L354.034 104.248L348.568 118.217C349.579 118.612 350.636 119.144 351.741 119.847L359.794 107.192ZM354.034 104.248L360.241 90.5925C356.428 88.8594 352.351 87.968 348.146 87.968V102.968V117.968C348.12 117.968 348.054 117.964 347.968 117.946C347.928 117.937 347.894 117.927 347.867 117.918C347.84 117.909 347.826 117.903 347.827 117.903L354.034 104.248ZM348.146 102.968V87.968C343.523 87.968 339.1 89.0566 335.038 91.0876L341.746 104.504L348.454 117.92C348.502 117.897 348.474 117.916 348.383 117.938C348.29 117.96 348.202 117.968 348.146 117.968V102.968ZM341.746 104.504L335.038 91.0876C331.256 92.9786 327.815 95.6555 324.741 98.5176L334.962 109.496L345.183 120.474C347.059 118.728 348.14 118.077 348.454 117.92L341.746 104.504ZM334.962 109.496L346.675 100.126L341.043 93.0856L329.33 102.456L317.617 111.826L323.249 118.866L334.962 109.496ZM329.33 102.456L339.937 113.063C342.49 110.509 344.466 109.083 345.83 108.343L338.674 95.16L331.518 81.9772C326.909 84.4793 322.655 87.9176 318.723 91.8494L329.33 102.456ZM338.674 95.16L345.959 108.272C347.059 107.661 347.689 107.6 348.018 107.6V92.6V77.6C342.033 77.6 336.433 79.2458 331.389 82.0476L338.674 95.16ZM348.018 92.6V107.6C348.88 107.6 349.429 107.737 349.801 107.88L355.186 93.88L360.571 79.8798C356.506 78.3163 352.277 77.6 348.018 77.6V92.6ZM355.186 93.88L349.801 107.88C351.311 108.461 352.6 109.088 353.699 109.738L361.33 96.824L368.961 83.9101C366.306 82.341 363.498 81.0057 360.571 79.8798L355.186 93.88ZM361.33 96.824L353.949 109.882C356.342 111.235 358.771 112.452 361.237 113.524L367.218 99.768L373.199 86.0119C371.739 85.3773 370.243 84.6317 368.711 83.7656L361.33 96.824ZM367.218 99.768L361.237 113.524C365.157 115.228 369.291 116.048 373.49 116.048V101.048V86.048C373.348 86.048 373.277 86.035 373.257 86.0309C373.239 86.0272 373.225 86.0232 373.199 86.0119L367.218 99.768ZM373.49 101.048V116.048C377.221 116.048 381.021 115.392 384.687 113.849L378.866 100.024L373.045 86.1995C373.24 86.1176 373.4 86.0759 373.499 86.0569C373.595 86.0386 373.6 86.048 373.49 86.048V101.048ZM378.866 100.024L385.022 113.703C387.767 112.467 390.344 110.933 392.756 109.156L383.858 97.08L374.96 85.0042C374.129 85.6164 373.379 86.0446 372.711 86.3452L378.866 100.024ZM383.858 97.08L393.153 108.853C395.129 107.293 397.043 105.637 398.893 103.889L388.594 92.984L378.295 82.0788C377.073 83.2323 375.829 84.3073 374.563 85.3068L383.858 97.08ZM388.594 92.984L376.985 102.483L382.745 109.523L394.354 100.024L405.963 90.5254L400.203 83.4854L388.594 92.984ZM394.354 100.024L383.981 89.1894C380.462 92.5584 377.8 94.5527 375.959 95.6186L383.474 108.6L390.99 121.581C395.634 118.893 400.225 115.17 404.728 110.859L394.354 100.024ZM383.474 108.6L376.219 95.4714C375.002 96.1436 374.152 96.288 373.49 96.288V111.288V126.288C379.655 126.288 385.46 124.64 390.729 121.729L383.474 108.6Z" fill="#F3EAF5" mask="url(#path-6-outside-2_210_166)"/>
</svg>
